<svg width="185" height="31" viewBox="0 0 185 31" fill="none" xmlns="http://www.w3.org/2000/svg">
<path d="M11.4746 10.0342L13.9971 1.20331L3.90686 15.4689L6.85314 14.7306L2.06421 21.8675L5.01048 21.0369L1 30.522L13.5438 15.2228L10.3808 16.0329L14.1745 9.58304L11.4746 10.0342Z" stroke="url(#paint0_linear)" stroke-width="1.37431"/>
<mask id="mask0" mask-type="alpha" maskUnits="userSpaceOnUse" x="0" y="0" width="16" height="31">
<path d="M11.4746 10.0342L13.9971 1.20331L3.90686 15.4689L6.85314 14.7306L2.06421 21.8675L5.01048 21.0369L1 30.522L13.5438 15.2228L10.3808 16.0329L14.1745 9.58304L11.4746 10.0342Z" fill="white" stroke="url(#paint1_linear)" stroke-width="1.37431"/>
</mask>
<g mask="url(#mask0)">
<path d="M13.3928 1.52356L10.6392 10.8002L13.0033 10.3813L9.16073 16.9696L11.9274 16.246L-1.19586 32.6074" stroke="url(#paint2_linear)" stroke-opacity="0.5" stroke-width="1.83242"/>
</g>
<path d="M24.8589 20.8345L23.0695 22.8831C24.9865 24.5286 27.2778 25.3513 29.9435 25.3513C34.0655 25.302 36.1717 23.5578 36.2622 20.1187C36.2622 18.8434 35.8632 17.7245 35.0651 16.7619C34.2588 15.7828 33.0124 15.1781 31.3257 14.9477C30.4701 14.8408 29.7954 14.7462 29.3018 14.6639C28.4132 14.4993 27.7674 14.2031 27.3642 13.7753C26.9611 13.3557 26.7595 12.8868 26.7595 12.3684C26.7759 11.5045 27.0762 10.8546 27.6604 10.4185C28.2199 9.99892 28.9192 9.78912 29.7584 9.78912C31.3792 9.82203 32.8643 10.2828 34.2136 11.1713L35.7315 8.92524C34.0778 7.73226 32.132 7.11108 29.8941 7.06172C28.0347 7.07817 26.5991 7.56359 25.5871 8.51798C24.5422 9.48059 24.0197 10.7476 24.0197 12.3191C24.0197 13.6272 24.4352 14.7379 25.2662 15.6512C26.0725 16.5397 27.249 17.1115 28.7958 17.3666C29.6597 17.49 30.4536 17.6011 31.1776 17.6998C32.7573 17.9713 33.5389 18.7776 33.5225 20.1187C33.4895 21.7559 32.3048 22.591 29.9682 22.6239C27.9936 22.6075 26.2905 22.011 24.8589 20.8345ZM39.1683 22.0933C39.1683 23.2204 39.4892 24.0226 40.1309 24.4998C40.7397 24.9688 41.5131 25.2032 42.451 25.2032H43.5988V22.772H42.7102C42.0685 22.772 41.7476 22.48 41.7476 21.8958V7.20981H39.1683V22.0933ZM52.6631 25.2032H55.2424V16.4534C55.226 14.8901 54.7364 13.7877 53.7738 13.1459C52.8112 12.5206 51.5236 12.2162 49.911 12.2327C48.0023 12.1998 46.5584 12.825 45.5793 14.1085L47.6032 15.6512C47.8254 15.2809 48.1298 15.0177 48.5165 14.8613C48.8867 14.7297 49.3927 14.6639 50.0345 14.6639C51.8034 14.631 52.6796 15.1781 52.6631 16.3053V17.6504H49.0965C47.7308 17.6669 46.6941 18.0371 45.9865 18.7612C45.279 19.4687 44.9252 20.3614 44.9252 21.4392C44.9252 22.5663 45.3325 23.4919 46.147 24.216C46.9204 24.9564 48.0228 25.3349 49.4544 25.3513C50.3265 25.3513 51.0094 25.2444 51.5031 25.0305C52.0049 24.8248 52.3752 24.5039 52.6138 24.0679H52.6631V25.2032ZM52.6631 20.6987C52.6631 21.6613 52.4616 22.2784 52.0584 22.5499C51.6141 22.8214 50.8531 22.9489 49.7753 22.9325C48.9196 22.9325 48.3067 22.7638 47.9365 22.4265C47.5498 22.1221 47.3564 21.7518 47.3564 21.3158C47.34 20.3203 48.0804 19.806 49.5778 19.7731H52.6631V20.6987ZM59.2099 21.2911L57.4081 23.0559C59.0782 24.5862 60.9582 25.3513 63.048 25.3513C64.5865 25.3349 65.8494 24.9811 66.8367 24.29C67.8322 23.6153 68.3382 22.6569 68.3547 21.4145C68.3547 20.3532 68.0791 19.4769 67.5278 18.7858C66.9354 18.0783 65.9728 17.6751 64.64 17.5764L62.5173 17.416C61.892 17.3501 61.456 17.1979 61.2091 16.9593C60.9376 16.7454 60.8101 16.4945 60.8266 16.2065C60.8266 15.754 60.9952 15.3838 61.3326 15.0958C61.6534 14.8079 62.217 14.6639 63.0233 14.6639C63.7309 14.6639 64.3561 14.7667 64.8992 14.9724C65.4504 15.2028 65.9728 15.4949 66.4665 15.8486L68.0585 13.9851C67.4332 13.4421 66.7256 13.0102 65.9358 12.6893C65.5244 12.5412 65.0843 12.426 64.6153 12.3437C64.1463 12.2697 63.6157 12.2327 63.0233 12.2327C61.6575 12.2327 60.5304 12.5618 59.6418 13.22C58.7286 13.8782 58.2637 14.8655 58.2473 16.1818C58.2637 17.2761 58.6175 18.1276 59.3086 18.7365C59.9833 19.3618 60.8595 19.7238 61.9373 19.8225L64.208 20.02C64.6852 20.0364 65.0678 20.1393 65.3558 20.3285C65.6355 20.5095 65.7754 20.8304 65.7754 21.2911C65.7754 21.8094 65.5409 22.2126 65.0719 22.5005C64.603 22.7885 63.9982 22.9325 63.2578 22.9325C61.6041 22.9325 60.2548 22.3853 59.2099 21.2911ZM71.2238 25.2032H73.8031V17.5764C73.8031 16.6796 74.0458 15.9967 74.5312 15.5278C75.0084 15.0506 75.6172 14.812 76.3577 14.812C77.0982 14.812 77.7029 15.0506 78.1718 15.5278C78.649 15.9967 78.8876 16.6796 78.8876 17.5764V25.2032H81.4669V16.6878C81.4258 15.2234 80.9692 14.1126 80.0971 13.3557C79.2167 12.607 78.2459 12.2327 77.1845 12.2327C75.8106 12.2327 74.6999 12.7387 73.8524 13.7506H73.8031V7.20981H71.2238V25.2032ZM97.4483 17.8726H101.114V18.8105C101.097 19.9377 100.743 20.8468 100.052 21.5379C99.3611 22.2619 98.4849 22.6239 97.4236 22.6239C96.7818 22.6239 96.2306 22.4882 95.7699 22.2167C95.3009 21.9863 94.9224 21.686 94.6345 21.3158C94.2807 20.9291 94.0462 20.4231 93.931 19.7978C93.7994 19.1725 93.7336 17.9754 93.7336 16.2065C93.7336 14.4376 93.7994 13.2323 93.931 12.5906C94.0462 11.9817 94.2807 11.484 94.6345 11.0973C94.9224 10.727 95.3009 10.4185 95.7699 10.1717C96.2306 9.9331 96.7818 9.80557 97.4236 9.78912C98.2957 9.80557 99.0362 10.0565 99.645 10.5419C100.229 11.052 100.632 11.6691 100.854 12.3931H103.742C103.454 10.8875 102.763 9.62457 101.669 8.60437C100.575 7.59239 99.1596 7.07817 97.4236 7.06172C96.0085 7.07817 94.8278 7.4155 93.8817 8.0737C92.919 8.72366 92.2197 9.46413 91.7837 10.2951C91.5122 10.7312 91.3106 11.303 91.1789 12.0105C91.0555 12.7181 90.9938 14.1168 90.9938 16.2065C90.9938 18.2634 91.0555 19.6538 91.1789 20.3778C91.2448 20.7645 91.327 21.0854 91.4258 21.3405C91.5327 21.5873 91.652 21.8464 91.7837 22.118C92.2197 22.9489 92.919 23.6812 93.8817 24.3147C94.8278 24.9729 96.0085 25.3184 97.4236 25.3513C99.2583 25.3184 100.78 24.6973 101.99 23.4878C103.191 22.2702 103.808 20.7604 103.841 18.9586V15.2933H97.4483V17.8726ZM107.056 25.2032H109.635V17.49C109.651 16.5521 109.923 15.8733 110.449 15.4537C110.918 15.0259 111.482 14.812 112.14 14.812C112.724 14.812 113.288 15.0259 113.831 15.4537L115.707 13.22C114.942 12.5782 114.045 12.2491 113.016 12.2327C111.642 12.2327 110.532 12.7387 109.684 13.7506H109.635V12.3931H107.056V25.2032ZM123.414 25.2032H125.993V16.4534C125.976 14.8901 125.487 13.7877 124.524 13.1459C123.562 12.5206 122.274 12.2162 120.662 12.2327C118.753 12.1998 117.309 12.825 116.33 14.1085L118.354 15.6512C118.576 15.2809 118.88 15.0177 119.267 14.8613C119.637 14.7297 120.143 14.6639 120.785 14.6639C122.554 14.631 123.43 15.1781 123.414 16.3053V17.6504H119.847C118.481 17.6669 117.445 18.0371 116.737 18.7612C116.029 19.4687 115.676 20.3614 115.676 21.4392C115.676 22.5663 116.083 23.4919 116.897 24.216C117.671 24.9564 118.773 25.3349 120.205 25.3513C121.077 25.3513 121.76 25.2444 122.254 25.0305C122.755 24.8248 123.126 24.5039 123.364 24.0679H123.414V25.2032ZM123.414 20.6987C123.414 21.6613 123.212 22.2784 122.809 22.5499C122.365 22.8214 121.604 22.9489 120.526 22.9325C119.67 22.9325 119.057 22.7638 118.687 22.4265C118.3 22.1221 118.107 21.7518 118.107 21.3158C118.09 20.3203 118.831 19.806 120.328 19.7731H123.414V20.6987ZM129.578 30.3865H132.157V23.8334C132.626 24.2941 133.14 24.6561 133.7 24.9194C134.218 25.2074 134.806 25.3513 135.465 25.3513C136.263 25.3349 136.945 25.1745 137.513 24.87C138.089 24.5738 138.554 24.1789 138.908 23.6853C139.261 23.2657 139.504 22.7268 139.636 22.0686C139.759 21.4104 139.821 20.3244 139.821 18.8105C139.821 17.2555 139.759 16.1531 139.636 15.5031C139.504 14.8449 139.261 14.3142 138.908 13.9111C138.184 12.8333 137.036 12.2738 135.465 12.2327C134.115 12.2738 133.013 12.7716 132.157 13.726V12.3931H129.578V30.3865ZM134.687 22.772C134.111 22.772 133.654 22.6486 133.317 22.4018C132.963 22.1632 132.704 21.8506 132.54 21.4639C132.383 21.0772 132.28 20.6452 132.231 20.168C132.182 19.7155 132.157 19.263 132.157 18.8105C132.157 18.3251 132.182 17.8438 132.231 17.3666C132.28 16.9141 132.383 16.4945 132.54 16.1078C132.704 15.7211 132.963 15.4085 133.317 15.1699C133.654 14.9313 134.111 14.812 134.687 14.812C135.296 14.812 135.777 14.9148 136.131 15.1205C136.485 15.3426 136.736 15.6471 136.884 16.0338C137.048 16.404 137.159 16.8318 137.217 17.3172C137.233 17.8027 137.242 18.3004 137.242 18.8105C137.242 19.2959 137.233 19.769 137.217 20.2298C137.159 20.6987 137.048 21.1265 136.884 21.5132C136.736 21.8835 136.485 22.1879 136.131 22.4265C135.777 22.6569 135.296 22.772 134.687 22.772ZM142.962 25.2032H145.541V17.5764C145.541 16.6796 145.784 15.9967 146.269 15.5278C146.746 15.0506 147.355 14.812 148.095 14.812C148.836 14.812 149.441 15.0506 149.91 15.5278C150.387 15.9967 150.625 16.6796 150.625 17.5764V25.2032H153.205V16.6878C153.164 15.2234 152.707 14.1126 151.835 13.3557C150.954 12.607 149.984 12.2327 148.922 12.2327C147.548 12.2327 146.438 12.7387 145.59 13.7506H145.541V7.20981H142.962V25.2032ZM164.848 21.9945C164.346 22.4141 163.676 22.6239 162.837 22.6239C162.195 22.6239 161.644 22.4882 161.183 22.2167C160.714 21.9863 160.336 21.686 160.048 21.3158C159.694 20.9291 159.459 20.4231 159.344 19.7978C159.213 19.1725 159.147 17.9754 159.147 16.2065C159.147 14.4376 159.213 13.2323 159.344 12.5906C159.459 11.9817 159.694 11.484 160.048 11.0973C160.336 10.727 160.714 10.4185 161.183 10.1717C161.644 9.9331 162.195 9.80557 162.837 9.78912C163.487 9.80557 164.05 9.9331 164.527 10.1717C164.98 10.4185 165.342 10.727 165.614 11.0973C165.967 11.484 166.21 11.9817 166.342 12.5906C166.465 13.2323 166.527 14.4376 166.527 16.2065C166.527 18.1071 166.44 19.3618 166.268 19.9706L164.17 18.3045L162.553 20.168L164.848 21.9945ZM167.082 23.784L169.353 25.6105L170.97 23.7346L168.6 21.8464C168.847 21.4351 169.024 20.8592 169.131 20.1187C169.213 19.3782 169.254 18.0742 169.254 16.2065C169.254 14.1168 169.201 12.7181 169.094 12.0105C168.979 11.303 168.769 10.7312 168.464 10.2951C168.045 9.46413 167.362 8.72366 166.416 8.0737C165.461 7.4155 164.268 7.07817 162.837 7.06172C161.422 7.07817 160.241 7.4155 159.295 8.0737C158.332 8.72366 157.633 9.46413 157.197 10.2951C156.925 10.7312 156.724 11.303 156.592 12.0105C156.469 12.7181 156.407 14.1168 156.407 16.2065C156.407 18.2634 156.469 19.6538 156.592 20.3778C156.658 20.7645 156.74 21.0854 156.839 21.3405C156.946 21.5873 157.065 21.8464 157.197 22.118C157.633 22.9489 158.332 23.6812 159.295 24.3147C160.241 24.9729 161.422 25.3184 162.837 25.3513C164.606 25.3184 166.021 24.796 167.082 23.784ZM172.703 25.2032H184.193V22.6239H175.431V7.20981H172.703V25.2032Z" fill="black"/>
<defs>
<linearGradient id="paint0_linear" x1="7.58723" y1="1.20331" x2="7.58723" y2="30.522" gradientUnits="userSpaceOnUse">
<stop stop-color="#FF4200"/>
<stop offset="1" stop-color="#E50695"/>
</linearGradient>
<linearGradient id="paint1_linear" x1="7.58723" y1="1.20331" x2="7.58723" y2="30.522" gradientUnits="userSpaceOnUse">
<stop stop-color="#FF4200"/>
<stop offset="1" stop-color="#E50695"/>
</linearGradient>
<linearGradient id="paint2_linear" x1="6.52696" y1="1.36563" x2="5.80464" y2="32.7684" gradientUnits="userSpaceOnUse">
<stop stop-color="#FF4200"/>
<stop offset="1" stop-color="#E50695"/>
</linearGradient>
</defs>
</svg>
